HIERARCHY
ROOT Hips
{
	OFFSET 0.000000 0.000000 0.000000
	CHANNELS 6 Xposition Yposition Zposition Xrotation Yrotation Zrotation
	JOINT LeftUpLeg_virtual
	{
		OFFSET 0.000000 0.000000 0.000000
		CHANNELS 3 Xrotation Yrotation Zrotation
		JOINT LeftUpLeg
		{
			OFFSET 10.205400 -3.823500 0.155100
			CHANNELS 3 Xrotation Yrotation Zrotation
			JOINT LeftLeg
			{
				OFFSET 0.708757 -12.982077 0.567790
				CHANNELS 3 Xrotation Yrotation Zrotation
				JOINT LeftFoot
				{
					OFFSET -0.708756 -10.717838 -2.184338
					CHANNELS 3 Xrotation Yrotation Zrotation
					JOINT LeftToeBase
					{
						OFFSET 0.108149 -7.191104 7.560241
						CHANNELS 3 Xrotation Yrotation Zrotation
						JOINT LeftToe_End
						{
							OFFSET 0.070230 0.081724 4.490308
							CHANNELS 3 Xrotation Yrotation Zrotation
							End Site
							{
								OFFSET 0 0 0
							}
						}
					}
				}
			}
		}
	}
	JOINT RightUpLeg_virtual
	{
		OFFSET 0.000000 0.000000 0.000000
		CHANNELS 3 Xrotation Yrotation Zrotation
		JOINT RightUpLeg
		{
			OFFSET -10.205400 -3.823500 0.005500
			CHANNELS 3 Xrotation Yrotation Zrotation
			JOINT RightLeg
			{
				OFFSET -0.708756 -12.982134 0.610632
				CHANNELS 3 Xrotation Yrotation Zrotation
				JOINT RightFoot
				{
					OFFSET 0.708754 -10.717769 -1.945823
					CHANNELS 3 Xrotation Yrotation Zrotation
					JOINT RightToeBase
					{
						OFFSET -0.108140 -7.191069 7.372968
						CHANNELS 3 Xrotation Yrotation Zrotation
						JOINT RightToe_End
						{
							OFFSET -0.070227 0.081735 4.479403
							CHANNELS 3 Xrotation Yrotation Zrotation
							End Site
							{
								OFFSET 0 0 0
							}
						}
					}
				}
			}
		}
	}
	JOINT Spine_virtual
	{
		OFFSET 0.000000 0.000000 0.000000
		CHANNELS 3 Xrotation Yrotation Zrotation
		JOINT Spine
		{
			OFFSET 0.000000 6.876099 0.125700
			CHANNELS 3 Xrotation Yrotation Zrotation
			JOINT Spine1
			{
				OFFSET 0.000000 5.730043 0.104720
				CHANNELS 3 Xrotation Yrotation Zrotation
				JOINT Spine1_split
				{
					OFFSET 0.000000 5.730043 0.104720
					CHANNELS 3 Xrotation Yrotation Zrotation
					JOINT Spine2
					{
						OFFSET 0.000000 5.730043 0.104720
						CHANNELS 3 Xrotation Yrotation Zrotation
						JOINT Neck_virtual
						{
							OFFSET 0.000000 0.000000 0.000000
							CHANNELS 3 Xrotation Yrotation Zrotation
							JOINT Neck
							{
								OFFSET 0.000000 10.314075 0.188496
								CHANNELS 3 Xrotation Yrotation Zrotation
								JOINT Head
								{
									OFFSET 0.000000 7.643700 -2.377400
									CHANNELS 3 Xrotation Yrotation Zrotation
									JOINT HeadTop_End
									{
										OFFSET 0.000000 43.788605 -13.619600
										CHANNELS 3 Xrotation Yrotation Zrotation
										End Site
										{
											OFFSET 0 0 0
										}
									}
								}
							}
						}
						JOINT LeftShoulder_virtual
						{
							OFFSET 0.000000 0.000000 0.000000
							CHANNELS 3 Xrotation Yrotation Zrotation
							JOINT LeftShoulder
							{
								OFFSET 2.196100 4.412489 0.087492
								CHANNELS 3 Xrotation Yrotation Zrotation
								JOINT LeftShoulder_split
								{
									OFFSET 2.196100 4.412489 0.087492
									CHANNELS 3 Xrotation Yrotation Zrotation
									JOINT LeftArm
									{
										OFFSET 8.771219 -2.981674 -0.026999
										CHANNELS 3 Xrotation Yrotation Zrotation
										JOINT LeftForeArm
										{
											OFFSET 8.512804 0.000000 -0.000000
											CHANNELS 3 Xrotation Yrotation Zrotation
											JOINT LeftHand
											{
												OFFSET 18.484802 0.000000 -0.000000
												CHANNELS 3 Xrotation Yrotation Zrotation
												End Site
												{
													OFFSET 0 0 0
												}
											}
										}
									}
								}
							}
						}
						JOINT RightShoulder_virtual
						{
							OFFSET 0.000000 0.000000 0.000000
							CHANNELS 3 Xrotation Yrotation Zrotation
							JOINT RightShoulder
							{
								OFFSET -2.196100 4.412496 0.070690
								CHANNELS 3 Xrotation Yrotation Zrotation
								JOINT RightShoulder_split
								{
									OFFSET -2.196100 4.412496 0.070690
									CHANNELS 3 Xrotation Yrotation Zrotation
									JOINT RightArm
									{
										OFFSET -8.771282 -2.981682 -0.094208
										CHANNELS 3 Xrotation Yrotation Zrotation
										JOINT RightForeArm
										{
											OFFSET -8.494598 0.000000 0.000000
											CHANNELS 3 Xrotation Yrotation Zrotation
											JOINT RightHand
											{
												OFFSET -18.483803 0.000000 0.000001
												CHANNELS 3 Xrotation Yrotation Zrotation
												End Site
												{
													OFFSET 0 0 0
												}
											}
										}
									}
								}
							}
						}
					}
				}
			}
		}
	}
}
MOTION
Frames: 4
Frame Time: 0.03333333
1.496191 31.219368 0.772366 0.000000 0.000000 0.000000 20.985445 -85.766453 23.165905 -19.755911 31.630459 30.615135 24.595308 -10.521491 -1.088356 -13.679749 4.649276 -22.424127 1.153546 -0.294198 -0.323806 0.000000 0.000000 0.000000 9.976249 -85.240044 13.114126 -12.366109 -11.648842 -31.028665 12.236903 6.658766 -3.582864 -11.130992 4.073978 25.274845 3.054943 0.454930 1.663322 0.000000 0.000000 0.000000 9.294994 -81.457389 11.809703 6.781344 -3.864498 -3.261235 1.850864 -7.907938 -0.452036 0.521322 0.205495 0.238822 0.000000 0.000000 0.000000 1.953705 -8.378021 -0.898346 -8.243822 6.101751 7.048250 91.195333 78.010282 -95.125192 0.000000 0.000000 0.000000 3.315033 -8.958872 -0.200711 5.098039 -1.075028 10.836864 -4.013689 -4.407250 2.927354 -35.580890 11.543238 -2.863454 -3.989975 -11.148742 0.401879 0.000000 0.000000 0.000000 2.527205 -8.666953 -0.808564 -0.150391 0.923784 -21.418167 0.729270 1.737820 7.517694 -49.574910 42.111644 44.739921 179.207430 37.264973 -177.962860 0.000000 0.000000 0.000000 
1.454860 31.219839 0.773224 0.000000 0.000000 0.000000 19.926816 -85.670796 22.164879 -19.601104 31.627556 30.506647 24.527773 -10.617346 -1.103265 -13.701359 4.688458 -22.437064 1.142097 -0.291289 -0.329027 0.000000 0.000000 0.000000 9.176655 -85.138363 12.383172 -12.168822 -11.554012 -31.094177 12.316540 6.451583 -3.658882 -11.295145 4.004732 25.338542 3.058610 0.458349 1.661991 0.000000 0.000000 0.000000 8.983262 -81.342608 11.551615 6.763549 -3.965561 -3.325294 1.843791 -7.999640 -0.435686 0.521321 0.206714 0.234677 0.000000 0.000000 0.000000 1.959487 -8.470861 -0.886689 -8.266346 6.174941 7.264379 93.890273 77.940771 -97.620861 0.000000 0.000000 0.000000 3.336271 -9.052696 -0.174394 5.009211 -0.854054 10.859682 -4.042739 -4.409288 2.908693 -35.539930 11.385447 -3.092693 -4.000563 -11.166356 0.397151 0.000000 0.000000 0.000000 2.545348 -8.761985 -0.800170 -0.059492 0.964384 -21.343458 0.716665 1.743426 7.582389 -49.069749 41.659858 44.506172 179.227838 36.903478 -177.951194 0.000000 0.000000 0.000000 
1.414191 31.220194 0.776228 0.000000 0.000000 0.000000 18.875593 -85.580126 21.179541 -19.454120 31.622219 30.397641 24.472467 -10.706559 -1.111404 -13.712410 4.717691 -22.451359 1.134021 -0.287368 -0.334344 0.000000 0.000000 0.000000 8.379368 -85.035445 11.660645 -11.965953 -11.462387 -31.158005 12.391613 6.242727 -3.740200 -11.461426 3.930145 25.390876 3.062077 0.463188 1.664445 0.000000 0.000000 0.000000 8.636412 -81.233680 11.268649 6.755733 -4.065064 -3.403306 1.834978 -8.090928 -0.413018 0.522819 0.206343 0.232242 0.000000 0.000000 0.000000 1.964981 -8.562370 -0.869588 -8.289239 6.256899 7.480128 96.564723 77.833585 -100.078486 0.000000 0.000000 0.000000 3.360762 -9.146592 -0.141239 4.919131 -0.641714 10.885608 -4.064056 -4.407432 2.894376 -35.509737 11.240402 -3.320650 -4.017688 -11.170041 0.384077 0.000000 0.000000 0.000000 2.563406 -8.856330 -0.786122 0.038323 1.006399 -21.260719 0.703064 1.757215 7.643068 -48.530519 41.191621 44.245040 179.255747 36.552140 -177.937711 0.000000 0.000000 0.000000 
1.374370 31.219784 0.780128 0.000000 0.000000 0.000000 17.838058 -85.492761 20.213416 -19.317390 31.615375 30.292876 24.428264 -10.788750 -1.114669 -13.721637 4.741332 -22.464726 1.132195 -0.282323 -0.341370 0.000000 0.000000 0.000000 7.588836 -84.929236 10.948148 -11.763093 -11.375083 -31.223493 12.468565 6.037430 -3.824357 -11.614484 3.857291 25.441657 3.052349 0.468867 1.669616 0.000000 0.000000 0.000000 8.259715 -81.130824 10.964211 6.760442 -4.162681 -3.493106 1.824458 -8.180016 -0.383836 0.523549 0.206934 0.232043 0.000000 0.000000 0.000000 1.969923 -8.650152 -0.847062 -8.309386 6.346560 7.686575 99.158023 77.693627 -102.448145 0.000000 0.000000 0.000000 3.387786 -9.238720 -0.101615 4.831302 -0.448901 10.915287 -4.072181 -4.400877 2.882514 -35.490981 11.118689 -3.535676 -4.040683 -11.167125 0.362906 0.000000 0.000000 0.000000 2.580243 -8.948029 -0.765880 0.142719 1.054051 -21.168576 0.686144 1.773864 7.695180 -47.966875 40.724880 43.954470 179.294966 36.223273 -177.924939 0.000000 0.000000 0.000000 
